<svg width="12" height="12" viewBox="0 0 12 12" fill="none" xmlns="http://www.w3.org/2000/svg">
<path d="M11.5569 6.46977C11.6097 7.37889 11.1933 8.25281 10.4484 8.78655L10.9 9.66047C11.0349 9.92441 11.0525 10.2353 10.9352 10.5109C10.8238 10.7866 10.595 11.0036 10.3135 11.0975L9.85015 11.2441C9.65719 11.3088 9.44898 11.3126 9.2538 11.2549C9.05862 11.1972 8.88594 11.0808 8.75922 10.9215L7.51578 9.45519C6.99378 9.36721 6.50109 9.14433 6.08466 8.81001C5.7914 8.89799 5.49814 8.94491 5.20487 8.94491C4.68873 8.94491 4.17259 8.78655 3.73856 8.48155C3.4277 8.5754 3.11098 8.61645 2.78839 8.61059C2.32503 8.61645 1.86754 8.52261 1.43938 8.34665C1.02704 8.16305 0.674705 7.86711 0.42266 7.49267C0.170614 7.11823 0.0290381 6.68042 0.0141239 6.2293C-0.0327981 5.807 0.0375849 5.37883 0.219408 4.99173C0.0493154 4.55183 0.0317196 4.07088 0.178351 3.62512C0.395365 3.06792 0.805933 2.60457 1.31621 2.31131C1.65639 1.32008 2.61243 0.657306 3.66231 0.727689C4.60075 -0.1521 6.03774 -0.245943 7.08175 0.510674C7.32809 0.446156 7.58617 0.410965 7.84424 0.410965C8.64191 0.393369 9.39853 0.745284 9.89708 1.37287C11.0936 1.68372 11.9499 2.7512 11.9968 3.99463C12.0262 4.64568 11.8502 5.28499 11.4924 5.83046C11.5335 6.04161 11.5569 6.25276 11.5569 6.46977ZM8.62432 5.64277C8.95864 5.68383 9.22257 5.93603 9.22257 6.27035C9.22257 6.42591 9.16078 6.57509 9.05078 6.68509C8.94079 6.79508 8.7916 6.85688 8.63605 6.85688H8.26654C8.07885 7.38475 7.75039 7.84811 7.31636 8.20002C7.463 8.25281 7.61549 8.28214 7.76799 8.32319C10.7769 8.28214 10.4249 6.44631 10.4249 6.41698C10.4174 6.21745 10.3706 6.02135 10.2872 5.83993C10.2038 5.6585 10.0854 5.4953 9.93886 5.35965C9.79232 5.22401 9.62048 5.11859 9.43316 5.04942C9.24584 4.98025 9.04672 4.94868 8.8472 4.95654C8.69164 4.95654 8.54245 4.89474 8.43246 4.78475C8.32247 4.67475 8.26067 4.52557 8.26067 4.37001C8.26067 4.21445 8.32247 4.06527 8.43246 3.95527C8.54245 3.84528 8.69164 3.78349 8.8472 3.78349C9.56862 3.80108 10.2607 4.07088 10.8003 4.54597C10.8297 4.37588 10.8472 4.19992 10.8472 4.02396C10.8121 3.29667 10.4836 2.66322 9.16392 2.54005C8.43076 0.803937 6.58321 1.76584 6.58321 2.30544C6.56561 2.44034 6.70638 2.72774 6.72984 2.74534C6.8854 2.74534 7.03458 2.80713 7.14458 2.91713C7.25457 3.02712 7.31636 3.1763 7.31636 3.33186C7.31636 3.65445 7.05243 3.91839 6.72984 3.91839C6.41898 3.90666 6.12572 3.78935 5.89111 3.58993C5.60958 3.77176 5.28699 3.8832 4.95267 3.91839C4.61835 3.94771 4.34268 3.7131 4.32509 3.39051C4.31445 3.31392 4.31955 3.23597 4.34005 3.16141C4.36056 3.08686 4.39605 3.01726 4.44435 2.95688C4.49266 2.8965 4.55276 2.8466 4.621 2.81023C4.68924 2.77386 4.76417 2.75178 4.84123 2.74534C4.93507 2.73361 5.39256 2.66322 5.39256 2.29371C5.39256 1.9066 5.53919 1.53709 5.7914 1.24383C5.2518 1.0972 4.67114 1.29075 4.08461 2.00045C3.0054 1.83036 2.56551 1.97699 2.24292 3.12071C1.68572 3.39638 1.39246 3.58993 1.26342 4.17646C1.89687 4.04742 2.54791 4.10021 3.15203 4.32309C3.4453 4.43453 3.60952 4.76298 3.49808 5.07971C3.38664 5.3847 3.04646 5.5372 2.74147 5.42576C2.3133 5.23807 1.83235 5.22634 1.39246 5.39057C1.20477 5.54893 1.20477 5.87738 1.20477 6.13545C1.20477 6.56948 1.42178 6.97418 1.7913 7.20879C2.10215 7.36716 2.4482 7.44927 2.79425 7.4434C2.70628 7.29091 2.63003 7.13255 2.56551 6.96832C2.51934 6.81763 2.5334 6.6549 2.60475 6.51436C2.67609 6.37383 2.79916 6.26644 2.94806 6.21478C3.09696 6.16312 3.26009 6.17121 3.40314 6.23737C3.5462 6.30352 3.65802 6.42257 3.7151 6.56948C3.94971 7.23812 4.54796 7.69561 5.2518 7.77186C6.05534 7.7308 6.7709 7.25572 7.12281 6.52256C7.25771 5.71315 7.90876 5.64277 8.62432 5.64277ZM9.79737 10.0241L9.43372 9.26163L9.01729 9.35548L9.60381 10.0886L9.79737 10.0241ZM7.07002 4.97413C7.07512 4.8243 7.02265 4.6782 6.92339 4.56585C6.82412 4.45349 6.68561 4.38342 6.53629 4.37001C6.11985 4.34655 5.71515 4.48732 5.40429 4.76298C5.06997 5.10317 4.89401 5.57239 4.91161 6.04747C4.91161 6.20303 4.97341 6.35221 5.0834 6.46221C5.1934 6.5722 5.34258 6.634 5.49814 6.634C5.83246 6.634 6.08466 6.37006 6.08466 6.04747C6.08466 5.88911 6.12572 5.73075 6.21956 5.60171C6.28995 5.54306 6.37792 5.51374 6.47177 5.51374C6.79436 5.53133 7.07002 5.29086 7.07002 4.97413Z" fill="white"/>
</svg>
