<svg width="16" height="15" viewBox="0 0 16 15" fill="none" xmlns="http://www.w3.org/2000/svg">
<path d="M15.3471 8.59156C15.4172 9.79883 14.8642 10.9594 13.875 11.6681L14.4748 12.8287C14.6539 13.1792 14.6773 13.592 14.5215 13.958C14.3735 14.3241 14.0697 14.6123 13.6959 14.7369L13.0806 14.9316C12.8243 15.0176 12.5478 15.0226 12.2886 14.946C12.0294 14.8693 11.8001 14.7148 11.6318 14.5033L9.98062 12.5561C9.28742 12.4392 8.63316 12.1433 8.08016 11.6993C7.69072 11.8161 7.30128 11.8784 6.91184 11.8784C6.22642 11.8784 5.54101 11.6681 4.96464 11.2631C4.55183 11.3877 4.13124 11.4423 3.70285 11.4345C3.08754 11.4423 2.48001 11.3176 1.91143 11.084C1.36387 10.8402 0.895978 10.4472 0.561273 9.94992C0.226568 9.45269 0.0385612 8.87129 0.0187559 8.27222C-0.0435545 7.71143 0.0499111 7.14285 0.291364 6.62879C0.0654887 6.04463 0.0421222 5.40595 0.236842 4.814C0.525027 4.07407 1.07024 3.45875 1.74787 3.06931C2.19962 1.75301 3.46919 0.872872 4.86338 0.966337C6.10959 -0.201981 8.01784 -0.326602 9.40425 0.678152C9.73138 0.592476 10.0741 0.545743 10.4168 0.545743C11.4761 0.522376 12.4808 0.989704 13.1429 1.8231C14.7318 2.23591 15.8689 3.65347 15.9313 5.30469C15.9702 6.16925 15.7365 7.01823 15.2614 7.74259C15.3159 8.02298 15.3471 8.30338 15.3471 8.59156ZM11.4527 7.49334C11.8967 7.54787 12.2472 7.88278 12.2472 8.32674C12.2472 8.53332 12.1651 8.73143 12.019 8.8775C11.873 9.02356 11.6749 9.10562 11.4683 9.10562H10.9776C10.7283 9.80662 10.2922 10.4219 9.7158 10.8893C9.91052 10.9594 10.113 10.9983 10.3155 11.0528C14.3112 10.9983 13.8439 8.56041 13.8439 8.52146C13.8338 8.25649 13.7717 7.99609 13.6609 7.75516C13.5501 7.51423 13.393 7.29751 13.1984 7.11738C13.0038 6.93725 12.7756 6.79725 12.5268 6.7054C12.2781 6.61354 12.0136 6.57163 11.7487 6.58206C11.5421 6.58206 11.344 6.5 11.1979 6.35393C11.0519 6.20786 10.9698 6.00975 10.9698 5.80318C10.9698 5.59661 11.0519 5.39849 11.1979 5.25243C11.344 5.10636 11.5421 5.0243 11.7487 5.0243C12.7067 5.04766 13.6258 5.40595 14.3423 6.03684C14.3813 5.81097 14.4047 5.5773 14.4047 5.34364C14.3579 4.37783 13.9217 3.53664 12.1693 3.37307C11.1957 1.06759 8.7422 2.34495 8.7422 3.06152C8.71884 3.24066 8.90577 3.62232 8.93692 3.64568C9.14349 3.64568 9.3416 3.72774 9.48767 3.87381C9.63374 4.01988 9.7158 4.21799 9.7158 4.42456C9.7158 4.85294 9.36531 5.20344 8.93692 5.20344C8.52412 5.18786 8.13468 5.03209 7.82313 4.76727C7.44926 5.00872 7.02088 5.15671 6.57692 5.20344C6.13296 5.24238 5.76688 4.93083 5.74352 4.50245C5.7294 4.40074 5.73616 4.29722 5.76339 4.19821C5.79062 4.09921 5.83775 4.00679 5.9019 3.9266C5.96604 3.84642 6.04586 3.78016 6.13648 3.73186C6.22709 3.68356 6.3266 3.65423 6.42893 3.64568C6.55355 3.6301 7.16108 3.53664 7.16108 3.04595C7.16108 2.53188 7.3558 2.04119 7.69072 1.65175C6.97415 1.45703 6.20306 1.71406 5.42418 2.65651C3.99104 2.43063 3.40688 2.62535 2.9785 4.14416C2.23856 4.51024 1.84912 4.76727 1.67777 5.54615C2.51896 5.37479 3.38351 5.44489 4.18576 5.74087C4.5752 5.88885 4.79329 6.32503 4.6453 6.74562C4.49731 7.15064 4.04556 7.35315 3.64054 7.20516C3.07196 6.95592 2.43328 6.94034 1.84912 7.15843C1.59988 7.36872 1.59988 7.8049 1.59988 8.1476C1.59988 8.72397 1.88807 9.2614 2.37876 9.57295C2.79157 9.78325 3.2511 9.89229 3.71064 9.8845C3.59381 9.682 3.49256 9.4717 3.40688 9.25361C3.34556 9.0535 3.36424 8.8374 3.45898 8.65078C3.55373 8.46415 3.71715 8.32154 3.91489 8.25294C4.11262 8.18434 4.32925 8.19509 4.51922 8.28294C4.70919 8.37079 4.85769 8.52888 4.93348 8.72397C5.24504 9.6119 6.03949 10.2194 6.97415 10.3207C8.04121 10.2662 8.99144 9.63526 9.45877 8.66166C9.63791 7.58681 10.5025 7.49334 11.4527 7.49334ZM13.0105 13.3116L12.5276 12.299L11.9746 12.4237L12.7534 13.3972L13.0105 13.3116ZM9.38867 6.60542C9.39544 6.40645 9.32576 6.21244 9.19395 6.06324C9.06213 5.91404 8.87818 5.82098 8.67989 5.80318C8.12689 5.77202 7.58946 5.95895 7.17666 6.32503C6.73269 6.77678 6.49903 7.39988 6.5224 8.03077C6.5224 8.23734 6.60446 8.43545 6.75053 8.58152C6.89659 8.72759 7.0947 8.80965 7.30128 8.80965C7.74524 8.80965 8.08016 8.45916 8.08016 8.03077C8.08016 7.82047 8.13468 7.61018 8.2593 7.43882C8.35276 7.36094 8.46959 7.32199 8.59422 7.32199C9.0226 7.34536 9.38867 7.02602 9.38867 6.60542Z" fill="white"/>
</svg>
