<svg width="13" height="13" viewBox="0 0 13 13" fill="none" xmlns="http://www.w3.org/2000/svg">
<path d="M10.0809 13H11.0618C11.5581 13 11.9659 12.6159 12.025 12.1313L13 2.39317H10.0454V0H8.88134V2.39317H5.94453L6.1218 3.7759C7.13225 4.05362 8.0777 4.55589 8.64497 5.11135C9.49588 5.95044 10.0809 6.81907 10.0809 8.23725V13ZM0 12.4091V11.8181H8.88134V12.4091C8.88134 12.7281 8.61543 13 8.2727 13H0.590907C0.265908 13 0 12.7281 0 12.4091ZM8.88134 8.2727C8.88134 3.54544 0 3.54544 0 8.2727H8.88134ZM0 9.45452H8.86361V10.6363H0V9.45452Z" fill="#4B5563"/>
</svg>
