<svg width="12" height="12" viewBox="0 0 12 12" fill="none" xmlns="http://www.w3.org/2000/svg">
<path d="M6.59995 4.19997H5.39996V2.99998H6.59995M6.59995 8.99994H5.39996V5.39996H6.59995M5.99996 0C5.21203 0 4.43182 0.155194 3.70387 0.45672C2.97593 0.758246 2.31449 1.2002 1.75735 1.75735C0.632137 2.88256 0 4.40867 0 5.99996C0 7.59125 0.632137 9.11736 1.75735 10.2426C2.31449 10.7997 2.97593 11.2417 3.70387 11.5432C4.43182 11.8447 5.21203 11.9999 5.99996 11.9999C7.59125 11.9999 9.11736 11.3678 10.2426 10.2426C11.3678 9.11736 11.9999 7.59125 11.9999 5.99996C11.9999 5.21203 11.8447 4.43182 11.5432 3.70387C11.2417 2.97593 10.7997 2.31449 10.2426 1.75735C9.68542 1.2002 9.02399 0.758246 8.29604 0.45672C7.5681 0.155194 6.78788 0 5.99996 0Z" fill="#4B5563"/>
</svg>
