<svg width="9" height="12" viewBox="0 0 9 12" fill="none" xmlns="http://www.w3.org/2000/svg">
<path d="M4.2 0C3.08609 0 2.0178 0.442499 1.23015 1.23015C0.442499 2.0178 0 3.08609 0 4.2C0 5.628 0.714 6.882 1.8 7.644V9C1.8 9.15913 1.86321 9.31174 1.97574 9.42426C2.08826 9.53678 2.24087 9.6 2.4 9.6H6C6.15913 9.6 6.31174 9.53678 6.42426 9.42426C6.53678 9.31174 6.6 9.15913 6.6 9V7.644C7.686 6.882 8.4 5.628 8.4 4.2C8.4 3.08609 7.9575 2.0178 7.16985 1.23015C6.38219 0.442499 5.31391 0 4.2 0ZM2.4 11.4C2.4 11.5591 2.46321 11.7117 2.57574 11.8243C2.68826 11.9368 2.84087 12 3 12H5.4C5.55913 12 5.71174 11.9368 5.82426 11.8243C5.93678 11.7117 6 11.5591 6 11.4V10.8H2.4V11.4Z" fill="#4B5563"/>
</svg>
