<svg width="13" height="13" viewBox="0 0 13 13" fill="none" xmlns="http://www.w3.org/2000/svg">
<path d="M1.50681 10.6895L2.33999 11.5227L3.40363 10.465L2.56454 9.62588M6.49998 2.95454C4.54408 2.95454 2.95454 4.54408 2.95454 6.49998C2.95454 8.45588 4.54408 10.0454 6.49998 10.0454C8.45588 10.0454 10.0454 8.45588 10.0454 6.49998C10.0454 4.53817 8.45588 2.95454 6.49998 2.95454ZM11.2272 7.09089H13V5.90907H11.2272M9.59633 10.465L10.66 11.5227L11.4931 10.6895L10.4354 9.62588M11.4931 2.36363L10.66 1.53636L9.59633 2.59408L10.4354 3.43317M7.09089 0H5.90907V1.77272H7.09089M3.40363 2.59408L2.33999 1.53636L1.50681 2.36363L2.56454 3.43317L3.40363 2.59408ZM0 7.09089H1.77272V5.90907H0M7.09089 11.2272H5.90907V13H7.09089" fill="#4B5563"/>
</svg>
