<svg width="48" height="48" viewBox="0 0 48 48" fill="none" xmlns="http://www.w3.org/2000/svg">
  <!-- Sun rays -->
  <g stroke="#F59E0B" stroke-width="2" stroke-linecap="round">
    <!-- Top ray -->
    <line x1="24" y1="4" x2="24" y2="8"/>
    <!-- Top-right ray -->
    <line x1="35.31" y1="7.76" x2="32.48" y2="10.59"/>
    <!-- Right ray -->
    <line x1="44" y1="24" x2="40" y2="24"/>
    <!-- Bottom-right ray -->
    <line x1="35.31" y1="40.24" x2="32.48" y2="37.41"/>
    <!-- Bottom ray -->
    <line x1="24" y1="44" x2="24" y2="40"/>
    <!-- Bottom-left ray -->
    <line x1="12.69" y1="40.24" x2="15.52" y2="37.41"/>
    <!-- Left ray -->
    <line x1="4" y1="24" x2="8" y2="24"/>
    <!-- Top-left ray -->
    <line x1="12.69" y1="7.76" x2="15.52" y2="10.59"/>
    <!-- Additional rays for fuller appearance -->
    <line x1="31.82" y1="6.34" x2="29.66" y2="9.17"/>
    <line x1="41.66" y1="16.18" x2="38.83" y2="18.34"/>
    <line x1="41.66" y1="31.82" x2="38.83" y2="29.66"/>
    <line x1="31.82" y1="41.66" x2="29.66" y2="38.83"/>
    <line x1="16.18" y1="41.66" x2="18.34" y2="38.83"/>
    <line x1="6.34" y1="31.82" x2="9.17" y2="29.66"/>
    <line x1="6.34" y1="16.18" x2="9.17" y2="18.34"/>
    <line x1="16.18" y1="6.34" x2="18.34" y2="9.17"/>
  </g>
  
  <!-- Sun circle -->
  <circle cx="24" cy="24" r="10" fill="#F59E0B"/>
</svg>