<svg width="0" height="0" style="display: none;">
  <defs>
    <!-- Sun icon for optimal time -->
    <g id="sun-optimal">
      <circle cx="12" cy="12" r="4" fill="#F59E0B"/>
      <path d="M12 2v2M12 20v2M4.22 4.22l1.42 1.42M18.36 18.36l1.42 1.42M2 12h2M20 12h2M4.22 19.78l1.42-1.42M18.36 5.64l1.42-1.42" stroke="#F59E0B" stroke-width="2" stroke-linecap="round"/>
    </g>
    
    <!-- Warning icon for moderate time -->
    <g id="warning-moderate">
      <path d="M12 2L2 20h20L12 2z" fill="#EF4444" stroke="#EF4444" stroke-width="2" stroke-linejoin="round"/>
      <path d="M12 8v4M12 16h.01" stroke="white" stroke-width="2" stroke-linecap="round"/>
    </g>
    
    <!-- Cloud icon for safe time -->
    <g id="cloud-safe">
      <path d="M18 10h-1.26A8 8 0 1 0 9 20h9a5 5 0 0 0 0-10z" fill="#6B7280" stroke="#6B7280" stroke-width="2" stroke-linejoin="round"/>
    </g>
    
    <!-- Person icon -->
    <g id="person">
      <circle cx="12" cy="8" r="3" fill="#6B7280"/>
      <path d="M6 21v-2a4 4 0 0 1 4-4h4a4 4 0 0 1 4 4v2" stroke="#6B7280" stroke-width="2" stroke-linecap="round" stroke-linejoin="round"/>
    </g>
    
    <!-- Walking icon -->
    <g id="walking">
      <circle cx="12" cy="5" r="2" fill="#6B7280"/>
      <path d="M10 22v-4l-2-2 1.5-5L12 13l2.5-2L16 16l-2 2v4M13 9l-1-2" stroke="#6B7280" stroke-width="2" stroke-linecap="round" stroke-linejoin="round"/>
    </g>
    
    <!-- Nature/leaf icon -->
    <g id="nature">
      <path d="M12 2C8 2 5 5 5 9c0 5 7 13 7 13s7-8 7-13c0-4-3-7-7-7z" fill="#10B981" stroke="#10B981" stroke-width="2"/>
      <circle cx="12" cy="9" r="2" fill="white"/>
    </g>
    
    <!-- Cycling icon -->
    <g id="cycling">
      <circle cx="6" cy="18" r="3" fill="none" stroke="#6B7280" stroke-width="2"/>
      <circle cx="18" cy="18" r="3" fill="none" stroke="#6B7280" stroke-width="2"/>
      <path d="M8 16l2-8 3 0 2 8M9 12l4.5 0" stroke="#6B7280" stroke-width="2" stroke-linecap="round"/>
    </g>
    
    <!-- Calendar icon -->
    <g id="calendar">
      <rect x="3" y="4" width="18" height="16" rx="2" fill="none" stroke="#6B7280" stroke-width="2"/>
      <path d="M16 2v4M8 2v4M3 10h18" stroke="#6B7280" stroke-width="2" stroke-linecap="round"/>
    </g>
    
    <!-- Lightbulb icon -->
    <g id="lightbulb">
      <path d="M9 21h6M12 3a6 6 0 0 0-6 6c0 3 2 5 2 5h8s2-2 2-5a6 6 0 0 0-6-6z" fill="#F59E0B" stroke="#F59E0B" stroke-width="2" stroke-linejoin="round"/>
    </g>
  </defs>
</svg>